<svg xmlns="http://www.w3.org/2000/svg" xmlns:xlink="http://www.w3.org/1999/xlink" version="1.1" x="0px" y="0px" viewBox="0 0 90 112.5" enable-background="new 0 0 90 90" xml:space="preserve"><path d="M68.805,61.682c-5.946,11.23-13.707,26.762-26.259,26.756C29.993,88.443,22.116,72.912,16.17,61.682  c-5.946-11.23-5.387-31.088,1.409-44.981C25.011,1.506,42.545,1.562,42.545,1.562s17.418-0.056,24.851,15.139  C74.191,30.593,74.75,50.451,68.805,61.682z M40.449,68.123c-2.973-19.654-20.976-21.637-20.976-21.637  C23.933,67.793,40.449,68.123,40.449,68.123z M45.6,67.793c19.655-2.973,21.637-20.977,21.637-20.977  C45.931,51.275,45.6,67.793,45.6,67.793z"/></svg>
