<svg xmlns="http://www.w3.org/2000/svg" xmlns:xlink="http://www.w3.org/1999/xlink" version="1.1" x="0px" y="0px" viewBox="0 0 100 125" enable-background="new 0 0 100 100" xml:space="preserve"><g><path d="M86.78,41.112l-2.305-8.119c-0.722-1.583-1.494-2.912-3.521-3.076C79.076,17.708,66.832,4.7,50,4.7   c-16.918,0-29.216,13.011-31.096,25.221c-2.074,0.202-2.825,1.854-3.405,3.143l-2.28,8.049C10.032,41.31,7.5,43.965,7.5,47.2v11.2   c0,3.364,2.736,6.101,6.1,6.101h1.71l1.307,5.229c0.515,1.93,1.893,3.042,3.898,3.16C25.535,87.969,31.517,95.3,38.8,95.3h22.4   c7.283,0,13.266-7.331,18.284-22.41c2.006-0.119,3.384-1.23,3.9-3.168l1.306-5.221h1.709c3.364,0,6.101-2.736,6.101-6.101V47.2   C92.5,43.965,89.968,41.31,86.78,41.112z M38.126,91.461c-4.763-0.565-9.463-7.099-13.332-18.561h8.029L38.126,91.461z    M62.922,72.9L57.74,91.501H42.26L37.078,72.9H62.922z M75.206,72.9c-3.868,11.462-8.569,17.995-13.331,18.561L67.177,72.9H75.206z    M50,8.5c15.539,0,25.067,12.314,27.105,21.4H22.887C24.766,21.054,34.42,8.5,50,8.5z M80.579,64.501l-1.149,4.6H20.571l-1.15-4.6   H80.579z M11.3,47.2c0-1.269,1.032-2.3,2.3-2.3h2.377l2.633,15.8H13.6c-1.268,0-2.3-1.031-2.3-2.3V47.2z M17.341,41.101l2.097-7.4   h61.125l2.096,7.4H17.341z M22.563,60.7l-2.633-15.8h60.14l-2.634,15.8H22.563z M86.399,60.7h-5.009l2.634-15.8h2.375   c1.269,0,2.301,1.031,2.301,2.3v11.2C88.7,59.669,87.668,60.7,86.399,60.7z"/><path d="M44.4,81.3h11.2c1.119,0,1.9-0.781,1.9-1.899s-0.781-1.899-1.9-1.899H44.4c-1.119,0-1.9,0.781-1.9,1.899   S43.281,81.3,44.4,81.3z"/></g><text x="0" y="115" fill="#000000" font-size="5px" font-weight="bold" font-family="'Helvetica Neue', Helvetica, Arial-Unicode, Arial, Sans-serif">Created by Yorlmar Campos</text><text x="0" y="120" fill="#000000" font-size="5px" font-weight="bold" font-family="'Helvetica Neue', Helvetica, Arial-Unicode, Arial, Sans-serif">from the Noun Project</text></svg>