<svg xmlns="http://www.w3.org/2000/svg" xmlns:xlink="http://www.w3.org/1999/xlink" version="1.1" x="0px" y="0px" viewBox="0 0 44 55" style="enable-background:new 0 0 44 44;" xml:space="preserve"><g><g><circle cx="20" cy="31" r="1"/><circle cx="24" cy="31" r="1"/><circle cx="28" cy="33" r="1"/><circle cx="30" cy="27" r="1"/><circle cx="33" cy="14" r="1"/><circle cx="12" cy="14" r="1"/><circle cx="33" cy="29" r="1"/><circle cx="33" cy="25" r="1"/><circle cx="14" cy="27" r="1"/><circle cx="11" cy="25" r="1"/><circle cx="11" cy="29" r="1"/><circle cx="16" cy="33" r="1"/><circle cx="20" cy="35" r="1"/><circle cx="24" cy="35" r="1"/><circle cx="20" cy="39" r="1"/><circle cx="24" cy="39" r="1"/><circle cx="20" cy="15" r="1"/><circle cx="16" cy="15" r="1"/><circle cx="24" cy="15" r="1"/><circle cx="28" cy="15" r="1"/><circle cx="16" cy="11" r="1"/><circle cx="28" cy="11" r="1"/><circle cx="16" cy="7" r="1"/><circle cx="28" cy="7" r="1"/><circle cx="17.001" cy="21" r="2"/><circle cx="27.001" cy="21" r="2"/><circle cx="22" cy="27" r="1"/><polygon points="22,19 17,17 27,17   "/><polygon points="30,31 27,31 26,27   "/><polygon points="14,31 17,31 18,27   "/><path d="M40,15h-1.287C37.628,8.369,33.472,3.983,27,2.536V1c0-0.552-0.447-1-1-1h-8c-0.553,0-1,0.448-1,1v1.536    C10.528,3.983,6.372,8.369,5.287,15H4c-0.553,0-1,0.448-1,1v6c0,0.552,0.447,1,1,1h1.339C6.908,33.357,13.75,44,22,44    s15.092-10.643,16.661-21H40c0.553,0,1-0.448,1-1v-6C41,15.448,40.553,15,40,15z M22,42C13.922,42,7,29.162,7,18.652    C7,9.34,12.468,4,22,4s15,5.34,15,14.652C37,29.162,30.078,42,22,42z"/></g></g><text x="0" y="59" fill="#000000" font-size="5px" font-weight="bold" font-family="'Helvetica Neue', Helvetica, Arial-Unicode, Arial, Sans-serif">Created by Dmitry Mirolyubov</text><text x="0" y="64" fill="#000000" font-size="5px" font-weight="bold" font-family="'Helvetica Neue', Helvetica, Arial-Unicode, Arial, Sans-serif">from the Noun Project</text></svg>