<?xml version="1.0" encoding="iso-8859-1"?>
<!-- Generator: Adobe Illustrator 16.0.0, SVG Export Plug-In . SVG Version: 6.00 Build 0)  -->
<!DOCTYPE svg PUBLIC "-//W3C//DTD SVG 1.1//EN" "http://www.w3.org/Graphics/SVG/1.1/DTD/svg11.dtd">
<svg xmlns="http://www.w3.org/2000/svg" xmlns:xlink="http://www.w3.org/1999/xlink" version="1.1" id="Capa_1" x="0px" y="0px" width="512px" height="512px" viewBox="0 0 400.816 400.816" style="enable-background:new 0 0 400.816 400.816;" xml:space="preserve">
<g>
	<path d="M400.816,223.139c0-15.438-10.727-28.36-25.129-31.75C356.744,116.358,285.35,60.408,200.408,60.408   c-136.45,0-173.784,116.865-176.956,131.424C9.901,195.796,0,208.307,0,223.139c0,18.017,14.605,32.625,32.623,32.625   c18.019,0,32.624-14.608,32.624-32.625c0-11.726-6.191-22.002-15.478-27.751c0,0,17.688-72.196,94.71-72.196   c46.703,0,85.91,30.525,96.113,71.375c-10.063,5.555-16.879,16.265-16.879,28.572c0,18.017,14.605,32.625,32.623,32.625   c18.019,0,32.623-14.608,32.623-32.625c0-14.832-9.899-27.342-23.451-31.307c-11.612-53.305-61.466-93.498-121.029-93.498   c-3.042,0-6.06,0.109-9.049,0.315c19.78-8.585,41.791-13.385,64.978-13.385c72.544,0,133.627,46.918,150.638,110.122   c-9.286,5.749-15.477,16.026-15.477,27.752c0,11.781,6.248,22.102,15.608,27.838c-12.646,37.393-50.062,64.574-94.139,64.574   c-44.367,0-81.984-27.543-94.385-65.319c8.713-5.856,14.447-15.806,14.447-27.093c0-18.018-14.605-32.625-32.624-32.625   c-18.018,0-32.623,14.607-32.623,32.625c0,15.847,11.302,29.047,26.28,32c14.714,49.16,62.451,85.27,118.906,85.27   c56.584,0,104.404-36.273,118.999-85.602C390.267,251.292,400.816,238.449,400.816,223.139z" fill="#933EC5"/>
</g>
<g>
</g>
<g>
</g>
<g>
</g>
<g>
</g>
<g>
</g>
<g>
</g>
<g>
</g>
<g>
</g>
<g>
</g>
<g>
</g>
<g>
</g>
<g>
</g>
<g>
</g>
<g>
</g>
<g>
</g>
</svg>
