<svg xmlns="http://www.w3.org/2000/svg" xmlns:xlink="http://www.w3.org/1999/xlink" version="1.1" x="0px" y="0px" viewBox="0 0 72.619 112.5" enable-background="new 0 0 72.619 90" xml:space="preserve"><path d="M8.71,38.6h21.6c0,5.963-4.836,10.8-10.801,10.8C13.545,49.4,8.71,44.563,8.71,38.6z M42.31,38.6h21.6  c0,5.963-4.836,10.8-10.8,10.8S42.31,44.563,42.31,38.6z M71.166,26.135c-0.617-2.396-1.446-4.7-2.465-6.849  c-0.209-0.439-0.427-0.871-0.651-1.298c-0.326-0.619-0.672-1.22-1.03-1.811c-1.764-2.907-3.915-5.478-6.417-7.663  c-0.629-0.55-1.285-1.07-1.957-1.571c-1.116-0.83-2.29-1.592-3.519-2.282c-0.963-0.541-1.96-1.037-2.989-1.488  c-0.202-0.089-0.4-0.183-0.605-0.268C49.338,1.994,46.989,1.285,44.55,0.8C41.888,0.269,39.116,0,36.314,0  c-2.806,0-5.581,0.27-8.248,0.802c-2.439,0.486-4.788,1.195-6.981,2.108c-6.4,2.663-11.592,7.063-15.214,12.833  c-0.411,0.654-0.805,1.323-1.175,2.012c-0.269,0.5-0.528,1.008-0.774,1.526c-1.018,2.143-1.848,4.448-2.469,6.852  c-0.595,2.307-0.986,4.744-1.216,7.263c-0.061,0.669-0.122,1.338-0.157,2.02C0.033,36.331,0,37.251,0,38.187  c0,1.264,0.046,2.568,0.143,3.988c0.143,2.114,0.402,4.285,0.772,6.453c0.454,2.661,1.091,5.343,1.89,7.996  c0.194,0.646,0.399,1.288,0.613,1.93c0.188,0.564,0.383,1.128,0.586,1.688c0.231,0.637,0.472,1.27,0.722,1.898  c0.787,1.982,1.668,3.923,2.636,5.803c0.324,0.629,0.658,1.252,1.001,1.866c0.925,1.655,1.918,3.25,2.978,4.771  c0.405,0.581,0.819,1.151,1.243,1.71c2.783,3.665,5.962,6.816,9.483,9.166c0.623,0.416,1.259,0.797,1.902,1.161  C27.757,88.761,31.894,90,36.314,90c1.992,0,3.923-0.264,5.795-0.734c0.649-0.163,1.292-0.351,1.926-0.566  c3.256-1.105,6.305-2.876,9.105-5.161c0.538-0.439,1.07-0.894,1.59-1.369c2.47-2.26,4.722-4.923,6.738-7.855  c0.382-0.556,0.755-1.119,1.119-1.693c1.151-1.813,2.216-3.714,3.184-5.681c0.327-0.665,0.642-1.339,0.947-2.018  c0.703-1.561,1.349-3.152,1.932-4.766c0.227-0.629,0.444-1.26,0.653-1.895c0.876-2.668,1.584-5.377,2.112-8.075  c0.103-0.521,0.201-1.04,0.29-1.559c0.028-0.166,0.045-0.329,0.071-0.494c0.241-1.486,0.42-2.956,0.555-4.407  c0.048-0.518,0.111-1.043,0.146-1.554c0.019-0.274,0.026-0.524,0.041-0.79c0.011-0.201,0.021-0.402,0.031-0.6  c0.038-0.829,0.063-1.634,0.066-2.407c0-0.062,0.003-0.128,0.003-0.189C72.619,33.928,72.13,29.873,71.166,26.135z M61.084,18.068  c-6.503,2.605-10.609,6.16-12.878,8.638c-3.403-1.649-6.986-3.22-10.72-4.631c2.913-3.437,8.026-8.112,16.097-11.351  C56.505,12.603,59.035,15.063,61.084,18.068z M49.229,8.446c0.747,0.311,1.477,0.652,2.188,1.022  c-8.025,3.528-13.091,8.397-15.928,11.88c-4.058-1.45-8.269-2.699-12.591-3.646c4.507-3.378,11.719-7.695,21.915-10.698  C46.338,7.379,47.813,7.858,49.229,8.446z M23.391,8.45c1.854-0.771,3.813-1.357,5.85-1.764C31.512,6.233,33.878,6,36.314,6  c1.458,0,2.887,0.093,4.288,0.257C31.031,9.578,24.36,13.94,20.323,17.17c-2.412-0.456-4.851-0.818-7.313-1.062  C15.83,12.694,19.357,10.128,23.391,8.45z M7.263,27.633c0.536-2.076,1.235-4,2.079-5.777c0.657-1.382,1.417-2.655,2.242-3.856  c2.263,0.185,4.512,0.472,6.741,0.85c0.847,0.143,1.69,0.297,2.531,0.465c4.576,0.917,9.049,2.188,13.356,3.701  c0.658,0.231,1.318,0.46,1.968,0.702c3.717,1.383,7.29,2.935,10.691,4.569c0.618,0.297,1.238,0.593,1.845,0.896  c2.771,1.382,5.415,2.811,7.899,4.242c0.049,0.028,0.095,0.056,0.143,0.084c-7.543-1.131-16.32-1.526-24.916-1.527  c-9.4,0.001-18.555,0.467-25.542,0.952C6.513,31.071,6.833,29.302,7.263,27.633z M18.848,74.569  c0.411-0.102,0.831-0.204,1.262-0.307c3.895-0.926,8.578-1.845,13.546-2.431c0.243,0.368,0.481,0.742,0.718,1.122  c-1.985,3.276-4.236,5.894-6.389,7.933c-0.252,0.238-0.502,0.466-0.75,0.688C24.206,79.935,21.385,77.524,18.848,74.569z M36.314,84  c-2.458,0-4.844-0.535-7.133-1.497c2.122-1.983,4.341-4.495,6.343-7.613c0.638,1.119,1.247,2.262,1.812,3.403  c0.93,1.842,1.764,3.659,2.492,5.338C38.676,83.866,37.504,84,36.314,84z M41.79,83.121c-0.771-1.789-1.664-3.743-2.666-5.729  c-0.762-1.482-1.573-2.981-2.432-4.44c-0.267-0.455-0.539-0.904-0.816-1.349c0.54-0.052,1.076-0.106,1.621-0.148  c2.023-0.155,4.071-0.247,6.116-0.247c0.637,0,1.271,0.012,1.905,0.029c1.973,2.246,3.578,4.568,4.873,6.79  C47.732,80.381,44.842,82.144,41.79,83.121z M51.886,76.62c-1.026-1.721-2.229-3.495-3.641-5.251c2.483,0.18,4.92,0.521,7.258,1.05  C54.363,73.94,53.155,75.348,51.886,76.62z M56.758,70.657c-3.313-0.819-6.799-1.245-10.313-1.389  c-0.943-0.039-1.888-0.062-2.832-0.062H43.61c-1.716,0.001-3.431,0.063-5.129,0.172c-0.762,0.049-1.518,0.108-2.271,0.176  c-0.524,0.047-1.046,0.098-1.565,0.152c-0.767,0.081-1.53,0.167-2.283,0.263c-5.641,0.723-10.835,1.847-14.912,2.889  c-0.912-1.186-1.779-2.446-2.602-3.765c4.552-0.396,10.16-0.734,16.016-1.017c0.83-0.04,1.665-0.079,2.503-0.116  c1.206-0.055,2.416-0.106,3.626-0.156c0.728-0.029,1.455-0.059,2.18-0.087c0.847-0.032,1.691-0.064,2.53-0.095  c0.067-0.003,0.135-0.005,0.202-0.008l2.828-0.1c5.241-0.18,10.179-0.318,14.227-0.42C58.267,68.331,57.529,69.519,56.758,70.657z   M60.042,65.069c-4.751,0.115-10.921,0.284-17.438,0.518c-0.893,0.032-1.791,0.065-2.693,0.1c-0.124,0.005-0.249,0.01-0.373,0.015  c-0.588,0.022-1.177,0.046-1.767,0.069c-2.011,0.081-4.027,0.168-6.022,0.261c-0.905,0.043-1.805,0.087-2.698,0.132  c-5.65,0.285-11,0.624-15.338,1.024c-1.096-1.938-2.094-3.984-2.981-6.109c1.529-0.252,3.196-0.516,4.991-0.78  c8.675-1.278,20.116-2.555,31.129-2.553c5.55-0.003,10.991,0.324,15.904,1.128C61.959,61.014,61.051,63.089,60.042,65.069z   M63.433,56.961c-5.157-0.873-10.82-1.214-16.581-1.217c-13.685,0.002-27.902,1.935-36.873,3.433  c-0.187-0.494-0.369-0.989-0.544-1.49c10.052-1.396,23.172-3.009,35.069-4.413c7.823-0.924,15.105-1.758,20.635-2.383  C64.673,52.945,64.099,54.975,63.433,56.961z M66.491,41.771c-0.131,1.946-0.369,3.901-0.7,5.85  c-0.069,0.404-0.147,0.807-0.225,1.21c-13.907,1.57-39.799,4.56-56.77,6.926c-0.833-2.657-1.499-5.387-1.968-8.136  c-0.332-1.948-0.569-3.903-0.7-5.85C6.048,40.571,6,39.375,6,38.187c0-1.111,0.047-2.184,0.118-3.236  c6.994-0.491,16.244-0.971,25.724-0.969c10.081-0.002,20.422,0.543,28.512,2.171c0.422,0.083,0.833,0.171,1.241,0.26  c1.819,0.398,3.496,0.862,5.014,1.386c0.001,0.131,0.011,0.255,0.011,0.387c0,0.492-0.013,0.985-0.028,1.479  C66.569,40.366,66.538,41.067,66.491,41.771z M62.39,34.549c-3.681-2.292-7.82-4.662-12.309-6.919  c2.213-2.315,6.071-5.504,12.097-7.847c0.388,0.669,0.761,1.355,1.102,2.073c0.842,1.776,1.542,3.7,2.077,5.777  c0.636,2.467,1.039,5.148,1.189,8.038C65.241,35.255,63.85,34.885,62.39,34.549z"/></svg>
