<svg xmlns="http://www.w3.org/2000/svg" xmlns:xlink="http://www.w3.org/1999/xlink" version="1.1" x="0px" y="0px" viewBox="0 0 60 60" enable-background="new 0 0 60 48" xml:space="preserve"><g><path d="M25,21.1c0-2.36-1.92-4.29-4.29-4.29s-4.29,1.92-4.29,4.29s1.92,4.29,4.29,4.29S25,23.46,25,21.1z M18.43,21.1   c0-1.26,1.03-2.29,2.29-2.29S23,19.83,23,21.1c0,1.26-1.03,2.29-2.29,2.29S18.43,22.36,18.43,21.1z"/><path d="M40.43,16.81c-2.36,0-4.29,1.92-4.29,4.29s1.92,4.29,4.29,4.29s4.29-1.92,4.29-4.29S42.79,16.81,40.43,16.81z M40.43,23.38   c-1.26,0-2.29-1.03-2.29-2.29c0-1.26,1.03-2.29,2.29-2.29s2.29,1.03,2.29,2.29C42.71,22.36,41.69,23.38,40.43,23.38z"/><path d="M25.1,10.81h10.95c0.55,0,1-0.45,1-1s-0.45-1-1-1H25.1c-0.55,0-1,0.45-1,1S24.54,10.81,25.1,10.81z"/><path d="M21.81,14.81h17.52c0.55,0,1-0.45,1-1s-0.45-1-1-1H21.81c-0.55,0-1,0.45-1,1S21.26,14.81,21.81,14.81z"/><path d="M38,30.81h-4h-7h-4c-2.76,0-5,2.24-5,5v1c0,2.76,2.24,5,5,5h6h4h5c2.76,0,5-2.24,5-5v-1C43,33.05,40.76,30.81,38,30.81z    M37,32.81v2h-2v-2H37z M26,32.81v2h-2v-2H26z M30,39.81v-1h2v1H30z M41,36.81c0,1.65-1.35,3-3,3h-4v-2c0-0.55-0.45-1-1-1h-4   c-0.55,0-1,0.45-1,1v2h-5c-1.65,0-3-1.35-3-3v-1c0-1.3,0.84-2.4,2-2.82v2.82c0,0.55,0.45,1,1,1h4c0.55,0,1-0.45,1-1v-3h5v3   c0,0.55,0.45,1,1,1h4c0.55,0,1-0.45,1-1v-2.82c1.16,0.41,2,1.51,2,2.82V36.81z"/><path d="M60,22.81c0-3.82-3.07-6.92-6.87-6.99c-0.19-0.51-0.38-1.02-0.61-1.52c-0.19-0.43-0.65-0.67-1.11-0.57   c-0.3,0.06-0.6,0.09-0.91,0.09c-2.48,0-4.5-2.02-4.5-4.5c0-0.48,0.08-0.95,0.23-1.41c0.14-0.41-0.01-0.86-0.36-1.12   c-0.35-0.26-0.82-0.26-1.18-0.01c-0.94,0.68-2.05,1.04-3.2,1.04c-3.03,0-5.5-2.47-5.5-5.5c0-0.25,0.02-0.49,0.06-0.73   c0.07-0.52-0.28-1.01-0.8-1.11C33.71,0.16,32.14,0,30.57,0C20.19,0,11.32,6.63,7.99,15.88C7.66,15.84,7.33,15.81,7,15.81   c-3.86,0-7,3.14-7,7s3.14,7,7,7c0.09,0,0.19-0.01,0.28-0.01C9.88,40.24,19.34,48,30.57,48c11.25,0,20.72-7.79,23.3-18.25   C57.32,29.32,60,26.36,60,22.81z M6.87,27.81c-2.7-0.07-4.87-2.28-4.87-5c0-2.76,2.24-5,5-5c0.12,0,0.25,0,0.38,0.01   c-0.01,0.03-0.01,0.05-0.02,0.08c-0.12,0.45-0.22,0.91-0.32,1.37c-0.02,0.1-0.04,0.2-0.05,0.31c-0.07,0.36-0.13,0.73-0.18,1.1   c-0.02,0.15-0.04,0.3-0.06,0.45c-0.04,0.34-0.07,0.68-0.1,1.02c-0.01,0.14-0.02,0.28-0.03,0.42C6.59,23.05,6.57,23.52,6.57,24   c0,0.58,0.03,1.15,0.07,1.72c0.01,0.12,0.02,0.24,0.03,0.36c0.05,0.57,0.11,1.13,0.2,1.68C6.87,27.77,6.87,27.79,6.87,27.81z    M30.57,46c-10.6,0-19.47-7.54-21.54-17.53c-0.05-0.26-0.1-0.52-0.14-0.78c-0.02-0.1-0.04-0.2-0.06-0.31   C8.66,26.26,8.57,25.13,8.57,24c0-0.51,0.02-1.01,0.06-1.51c0.01-0.12,0.02-0.24,0.03-0.36c0.04-0.5,0.1-1,0.17-1.49   c0-0.01,0-0.02,0.01-0.03c0.08-0.48,0.17-0.96,0.28-1.44c0.03-0.12,0.05-0.23,0.08-0.35c0.11-0.47,0.24-0.94,0.39-1.4   C12.39,8.49,20.74,2,30.57,2c1.14,0,2.29,0.09,3.43,0.27c0,0.01,0,0.03,0,0.04c0,4.14,3.36,7.5,7.5,7.5c0.86,0,1.7-0.15,2.5-0.43   c0.04,3.55,2.94,6.43,6.5,6.43c0.16,0,0.32-0.01,0.49-0.02c0.22,0.55,0.4,1.1,0.58,1.66c0.09,0.28,0.16,0.56,0.24,0.84   c0.09,0.34,0.18,0.69,0.25,1.03c0.06,0.28,0.12,0.57,0.17,0.86c0.07,0.38,0.12,0.77,0.17,1.16c0.03,0.24,0.07,0.49,0.09,0.73   c0.06,0.64,0.09,1.28,0.09,1.93c0,0.38-0.01,0.77-0.03,1.15c0,0.01,0,0.01,0,0.02c-0.02,0.38-0.05,0.76-0.09,1.13c0,0,0,0,0,0.01   c-0.04,0.38-0.09,0.75-0.15,1.13c-0.01,0.03-0.01,0.07-0.02,0.1c-0.06,0.34-0.12,0.67-0.19,1.01C49.99,38.51,41.14,46,30.57,46z    M54.3,27.63c0.08-0.54,0.14-1.09,0.19-1.64c0.01-0.12,0.02-0.23,0.03-0.35c0.04-0.54,0.06-1.09,0.06-1.65   c0-0.48-0.02-0.96-0.05-1.44c-0.01-0.12-0.02-0.24-0.03-0.36c-0.03-0.38-0.06-0.75-0.11-1.12c-0.01-0.11-0.03-0.22-0.04-0.33   c-0.06-0.42-0.12-0.83-0.2-1.24c-0.01-0.06-0.02-0.12-0.03-0.17c-0.1-0.49-0.2-0.97-0.33-1.45c2.39,0.37,4.22,2.45,4.22,4.94   C58,25.11,56.42,27.06,54.3,27.63z"/><circle cx="27.5" cy="25.31" r="1.5"/><circle cx="33.5" cy="25.31" r="1.5"/></g><text x="0" y="63" fill="#000000" font-size="5px" font-weight="bold" font-family="'Helvetica Neue', Helvetica, Arial-Unicode, Arial, Sans-serif">Created by Oliviu Stoian</text><text x="0" y="68" fill="#000000" font-size="5px" font-weight="bold" font-family="'Helvetica Neue', Helvetica, Arial-Unicode, Arial, Sans-serif">from the Noun Project</text></svg>